# xmcd
#
# Track frame offsets:
#	182
#	14970
#	28295
#	41532
#	58282
#	68712
#	79700
#	91737
#	103310
#	116772
#	131417
#	145325
#	156867
#	170492
#	182847
#	193757
#	205195
#	218127
#
# Disc length: 3037 seconds
#
# Revision: 0
# Processed by: cddbd v1.5.1PL0 Copyright (c) Steve Scherf et al.
# Submitted via: audiograbber 1.83.01
#
DISCID=100bdb12
DTITLE=Glen Campbell - Het beste van
DYEAR=1990
DGENRE=Country
TTITLE0=Rhinestone Cowboy
TTITLE1=Gentle on my mind
TTITLE2=Where's the playground, Susie
TTITLE3=Both sides now
TTITLE4=Reason to believe
TTITLE5=It's only make believe
TTITLE6=Galveston
TTITLE7=Dreams of the everyday housewife
TTITLE8=Southern nights
TTITLE9=Hollywood smiles
TTITLE10=Wichita Lineman
TTITLE11=All I have to do is dream (& Bobbie Gentry)
TTITLE12=Honey come back
TTITLE13=By the time I get to Phoenix
TTITLE14=Try a little kindness
TTITLE15=Dream baby (how long must I dream)
TTITLE16=Sunflower
TTITLE17=The universal soldier
EXTD=
EXTT0=
EXTT1=
EXTT2=
EXTT3=
EXTT4=
EXTT5=
EXTT6=
EXTT7=
EXTT8=
EXTT9=
EXTT10=
EXTT11=
EXTT12=
EXTT13=
EXTT14=
EXTT15=
EXTT16=
EXTT17=
PLAYORDER=
